<?xml version="1.0" encoding="UTF-8" standalone="no"?>
<svg
   width="1024"
   height="500"
   version="1.1"
   viewBox="0 0 270.93333 132.29166"
   id="svg4"
   sodipodi:docname="feature-graphic.svg"
   inkscape:version="1.1.2 (1:1.1+202202050942+0a00cf5339)"
   inkscape:export-filename="/data/projects/gurutzetapp/featured.png"
   inkscape:export-xdpi="95.999992"
   inkscape:export-ydpi="95.999992"
   xmlns:inkscape="http://www.inkscape.org/namespaces/inkscape"
   xmlns:sodipodi="http://sodipodi.sourceforge.net/DTD/sodipodi-0.dtd"
   xmlns="http://www.w3.org/2000/svg"
   xmlns:svg="http://www.w3.org/2000/svg">
  <sodipodi:namedview
     id="namedview6"
     pagecolor="#ffffff"
     bordercolor="#666666"
     borderopacity="1.0"
     inkscape:pageshadow="2"
     inkscape:pageopacity="0.0"
     inkscape:pagecheckerboard="0"
     inkscape:document-units="mm"
     showgrid="false"
     units="px"
     width="1.024px"
     inkscape:zoom="1.0999107"
     inkscape:cx="564.59128"
     inkscape:cy="396.85039"
     inkscape:window-width="2560"
     inkscape:window-height="1376"
     inkscape:window-x="1920"
     inkscape:window-y="27"
     inkscape:window-maximized="1"
     inkscape:current-layer="svg4"
     inkscape:snap-page="true" />
  <defs
     id="defs8" />
  <rect
     style="fill:#ffffff;stroke-width:1.26116;stroke-linecap:round;-inkscape-stroke:none;stop-color:#000000"
     id="rect102921"
     width="270.93332"
     height="132.29167"
     x="0"
     y="0" />
  <path
     id="rect955"
     style="fill:#25b750;stroke-width:0.794481;stroke-linecap:round;stop-color:#000000"
     d="M 0,0 H 113.60918 L 71.630653,132.29167 0,132.29167 Z"
     sodipodi:nodetypes="ccccc" />
  <path
     d="m 20.723145,108.14169 c -2.377575,-0.75193 -3.257679,-1.59094 -3.257679,-3.10547 0,-1.07432 0.767756,-2.00207 1.849375,-2.23471 1.993644,-0.42881 2.658604,-0.83728 3.309346,-2.03297 0.353785,-0.64999 0.852365,-1.999493 1.107961,-2.998858 0.255592,-0.999373 0.63309,-2.074017 0.838899,-2.388095 0.346981,-0.529584 0.296656,-0.929519 -0.692161,-5.500374 -0.586521,-2.711236 -1.672216,-7.47583 -2.412717,-10.588168 -1.844976,-7.754283 -1.792237,-8.612174 0.56479,-9.177663 3.050477,-0.73181 7.60406,1.347623 13.136089,5.998799 1.282007,1.077863 2.422643,1.95979 2.534722,1.95979 0.112078,0 0.551969,-0.755416 0.977534,-1.678655 0.614527,-1.333245 0.721187,-1.776891 0.518345,-2.155941 -0.454462,-0.849145 -0.274712,-1.665671 0.70756,-3.214006 0.529618,-0.834821 0.96396,-1.696468 0.965248,-1.914723 0.0043,-0.752627 -2.17944,-9.499574 -2.691599,-10.781314 -0.623756,-1.560675 -1.327881,-2.088769 -2.525709,-1.894336 -0.47668,0.07738 -2.723415,1.039128 -4.992777,2.137272 -3.701003,1.790894 -4.295357,2.006144 -5.76917,2.089411 -1.904529,0.107609 -2.832112,-0.198666 -3.690218,-1.218483 -0.77398,-0.919806 -0.806815,-2.357994 -0.07728,-3.38258 0.748657,-1.051414 2.445017,-1.733006 7.090613,-2.848961 7.183966,-1.725762 7.509095,-2.016608 7.269808,-6.502053 -0.167786,-3.145922 -0.01519,-3.693814 1.231468,-4.421867 0.926512,-0.541131 1.879956,-0.39948 2.105991,0.312822 0.08396,0.264513 -0.08578,1.431588 -0.377187,2.593524 -0.622093,2.480534 -0.542581,5.11419 0.238674,7.903972 0.587862,2.099285 3.803264,10.26894 4.201789,10.675621 0.231716,0.236581 0.696882,-0.266398 2.217319,-2.397429 2.426827,-3.401465 2.966993,-3.904503 5.045138,-4.698603 1.728445,-0.660453 2.791072,-1.464746 2.791072,-2.112429 0,-0.200491 -0.311154,-0.72124 -0.691464,-1.157161 -0.961707,-1.102435 -1.628223,-2.517393 -1.826627,-3.877624 -0.139623,-0.957308 -0.307982,-1.245846 -0.985743,-1.689171 -1.044009,-0.682933 -1.805004,-2.034581 -1.805004,-3.206067 0,-1.16215 0.790772,-2.809633 1.726457,-3.597025 1.106997,-0.931501 1.379011,-0.723977 0.387994,0.296012 -0.483552,0.4977 -0.99422,1.210598 -1.134841,1.584229 -0.886327,2.354881 0.632339,4.754776 3.002029,4.743939 1.064288,-0.0051 2.711128,-0.659487 3.226882,-1.28276 0.452928,-0.547301 0.587486,-0.518056 1.900398,0.413322 2.921283,2.072352 5.272731,1.717339 6.509027,-0.982632 1.39972,-3.057396 0.429402,-6.994575 -2.008935,-8.151842 -2.249725,-1.067562 -5.852329,0.468857 -6.697881,2.856204 -0.108838,0.307402 -0.289837,0.395541 -0.578635,0.281757 -0.231142,-0.09106 -1.017504,-0.227242 -1.747436,-0.302628 -0.729985,-0.07542 -1.38534,-0.225193 -1.456429,-0.332898 -0.07106,-0.107712 -0.972921,0.07208 -2.004161,0.399582 -1.419087,0.450636 -1.989083,0.534355 -2.344204,0.344277 -1.697702,-0.908591 1.456215,-4.219225 7.021401,-7.370138 1.324232,-0.749781 2.46079,-1.449078 2.525601,-1.553967 0.06481,-0.104879 0.271918,-0.995884 0.460208,-1.979964 1.001625,-5.234906 4.157955,-10.153588 8.663144,-13.499847 1.918425,-1.425043 5.842673,-3.533931 6.099129,-3.277637 0.07755,0.07754 -0.981452,0.894911 -2.353273,1.816379 -5.022392,3.373513 -7.73014,6.257937 -9.867625,10.51091 -1.394945,2.775832 -1.465175,3.198447 -0.529687,3.185033 0.616888,-0.0088 0.659862,0.05421 0.610503,0.895394 -0.02924,0.497701 -0.01497,0.904891 0.03166,0.904891 0.04657,0 0.830637,-0.284199 1.742287,-0.631535 1.197667,-0.456323 2.193175,-0.647147 3.588066,-0.687654 l 1.930497,-0.05609 1.750441,-1.708163 c 4.647043,-4.534805 9.79144,-7.465638 16.008598,-9.120257 2.266196,-0.603099 2.999295,-0.678051 7.521435,-0.768776 4.01267,-0.08052 5.40648,-0.02082 6.99779,0.29957 1.093,0.220058 2.063289,0.473895 2.156209,0.564094 0.0929,0.09019 -1.934419,0.125476 -4.505129,0.07842 -2.70947,-0.0496 -5.569577,0.03241 -6.805186,0.195099 -4.112664,0.541721 -8.966273,2.023796 -12.546989,3.831215 -3.063782,1.546566 -9.492063,6.243989 -9.492063,6.936096 0,0.154088 0.442906,0.573268 0.984241,0.931502 1.155604,0.764751 1.777374,2.023421 1.56325,3.1647 -0.0803,0.428006 -0.593013,1.286085 -1.139455,1.906782 L 67.8314,36.599402 68.684999,37.489 c 1.165637,1.214729 2.023957,3.025368 2.624588,5.536322 0.459742,1.922127 0.495426,2.640953 0.401234,8.082096 -0.05687,3.284827 -0.07379,5.972509 -0.03761,5.972509 0.03616,0 0.477763,-0.282266 0.981343,-0.627242 0.799464,-0.547676 1.091651,-0.61179 2.303214,-0.505495 1.187045,0.104148 1.511156,0.03787 2.242857,-0.458642 1.058817,-0.718557 1.075127,-0.718074 1.075127,0.03057 0,1.692391 -1.401543,3.158745 -3.559309,3.723859 -0.56404,0.14773 -1.025553,0.372698 -1.025553,0.499916 0,0.127219 0.389008,0.661903 0.864437,1.188171 0.492179,0.54478 0.790236,1.076952 0.692107,1.235707 -0.244715,0.395955 -2.174772,0.0907 -3.181278,-0.503167 -0.44876,-0.264782 -0.910631,-0.481411 -1.026358,-0.481411 -0.115722,0 -0.334315,0.624398 -0.485747,1.38754 -0.151448,0.763142 -0.550359,2.561817 -0.886433,3.997107 -0.336108,1.435238 -0.54022,2.680441 -0.453578,2.767088 0.509531,0.509536 7.001014,-2.623784 8.849852,-4.271696 1.489962,-1.327988 2.16254,-2.608708 2.63162,-5.011233 0.437315,-2.239798 1.526871,-3.110995 2.519329,-2.014354 0.339313,0.374956 0.407455,0.771674 0.325968,1.898037 -0.0827,1.144928 -0.306652,1.761118 -1.142139,3.143831 -1.223089,2.024279 -1.199813,2.402684 0.239038,3.885297 2.329083,2.399949 6.59434,3.30854 12.280883,2.616165 0.81014,-0.09865 0.93724,0.642533 0.23782,1.387058 l -0.53732,0.571928 0.62284,0.28379 c 0.86192,0.392715 0.96837,0.848341 0.33954,1.453157 -1.45751,1.401813 -5.634498,2.189367 -8.97647,1.69239 -2.406653,-0.357954 -3.084488,-0.695004 -5.325465,-2.648088 -2.829705,-2.466155 -3.334515,-2.726421 -5.102661,-2.630973 -1.22106,0.06592 -1.951795,0.307794 -3.981601,1.317848 -3.838299,1.91 -4.387585,2.384335 -5.020836,4.335273 -0.293765,0.905105 -1.282437,3.089105 -2.197038,4.853388 -1.487065,2.868544 -1.662935,3.353394 -1.663151,4.584916 -1.39e-4,0.757401 -0.164141,3.548632 -0.364429,6.202676 -0.355362,4.708745 -0.352781,4.840294 0.106381,5.429563 0.258805,0.332083 0.762981,1.187039 1.120409,1.89986 0.357401,0.712812 1.10544,1.771559 1.662345,2.352779 1.009565,1.05361 1.017506,1.05672 2.724543,1.05672 1.489747,0 1.808385,0.081 2.454459,0.62473 1.548281,1.30282 0.712441,3.13267 -2.028465,4.44082 -1.909519,0.91132 -3.2543,1.1028 -5.086451,0.72424 -3.518105,-0.72682 -5.655966,-2.81383 -5.655966,-5.52131 0,-1.16901 0.645645,-3.817099 1.107748,-4.543274 0.44974,-0.706757 0.466255,-0.651714 -0.524355,-1.748194 -0.475446,-0.526272 -0.793724,-1.071323 -0.707237,-1.211184 0.08645,-0.139886 0.258274,-0.191863 0.381823,-0.115511 0.31639,0.195517 0.280744,-0.46094 -0.0426,-0.784293 -0.195416,-0.195407 -0.134666,-0.338155 0.226083,-0.531211 0.405183,-0.216852 0.468025,-0.419777 0.351799,-1.135979 -0.131204,-0.808531 -0.103681,-0.859929 0.37838,-0.706968 0.634807,0.201489 0.677031,0.08595 0.856067,-2.341683 0.08847,-1.199761 0.04979,-1.870139 -0.108072,-1.870139 -0.135292,0 -1.102596,0.600256 -2.149609,1.33389 -2.488367,1.74368 -5.303366,3.044414 -8.57891,3.964165 -3.439935,0.9659 -4.711642,1.099382 -7.157141,0.751076 -3.13986,-0.447182 -7.525191,-1.468668 -7.912019,-1.842889 -0.296045,-0.286618 -0.308836,-0.703374 -0.08273,-2.69498 0.147112,-1.295743 0.335618,-2.525493 0.418901,-2.732751 0.102432,-0.254903 -1.031668,-1.85549 -3.505067,-4.946849 -6.745094,-8.430295 -7.51607,-8.83644 -7.128704,-3.754763 0.15604,2.04676 2.101323,11.712709 2.421624,12.033009 0.0902,0.0902 0.392517,0.0213 0.671826,-0.153143 0.495067,-0.309185 0.503999,-0.289258 0.355604,0.793401 -0.139048,1.014447 -0.108542,1.110538 0.352643,1.110538 0.44862,0 0.486771,0.09641 0.34248,0.865563 -0.149243,0.795548 -0.122133,0.852794 0.335108,0.707666 0.6413,-0.203527 0.623595,0.006 -0.108692,1.286781 -0.722581,1.263927 -0.746779,1.714979 -0.133829,2.494162 0.256594,0.326231 0.77237,1.34532 1.146215,2.264696 1.607727,3.953864 0.232875,7.467774 -3.638284,9.299454 -1.640295,0.77596 -3.387194,0.89941 -5.093105,0.35991 z M 61.628829,55.377361 c 1.354545,-0.344809 3.006107,-1.523495 3.452327,-2.463849 0.482668,-1.017182 0.527644,-2.571366 0.09165,-3.167651 -0.294391,-0.402619 -0.385176,-0.383997 -1.508203,0.309307 -1.814394,1.120141 -3.901446,1.56588 -6.503662,1.389043 -1.194502,-0.08115 -2.589179,-0.265897 -3.099353,-0.410521 -0.510153,-0.144623 -0.984724,-0.205793 -1.054579,-0.135943 -0.499904,0.499905 1.688635,3.41783 3.11781,4.156882 1.499351,0.775321 3.309077,0.881445 5.50413,0.322715 z M 57.281538,31.004455 c 0,-0.124885 -0.108586,-0.227069 -0.241315,-0.227069 -0.132719,0 -0.24131,0.169298 -0.24131,0.376205 0,0.206919 0.108591,0.309092 0.24131,0.22707 0.132729,-0.08199 0.241315,-0.251321 0.241315,-0.376206 z m -5.260552,14.444653 c -0.719953,-0.719951 -0.04925,-2.123534 1.014661,-2.123534 0.733526,0 0.893516,0.206344 0.566241,0.730361 -0.209145,0.334888 -0.195363,0.530465 0.05899,0.836966 0.282454,0.34034 0.280281,0.432632 -0.01454,0.619195 -0.488795,0.309291 -1.28394,0.278495 -1.62538,-0.06293 z m 5.966072,-0.415795 c -1.454391,-1.454391 -0.589311,-3.63823 1.441192,-3.63823 1.171754,0 1.453372,0.360941 0.774785,0.993147 -0.586199,0.546121 -0.591725,0.57182 -0.258484,1.194502 0.160736,0.300347 0.504874,0.466765 0.965249,0.466765 0.869373,0 0.928604,0.439546 0.156942,1.164456 -0.840669,0.789754 -2.188347,0.710672 -3.079716,-0.180688 z"
     id="path2"
     style="fill:#ffffff;fill-opacity:1;stroke-width:0.536517" />
  <text
     xml:space="preserve"
     style="font-size:16.9333px;line-height:1.25;font-family:Staatliches;-inkscape-font-specification:Staatliches;stroke-width:0.264583"
     x="138.85556"
     y="109.54342"
     id="text6346"><tspan
       sodipodi:role="line"
       id="tspan6344"
       style="font-style:normal;font-variant:normal;font-weight:normal;font-stretch:normal;font-size:16.9333px;font-family:Karumbi;-inkscape-font-specification:Karumbi;stroke-width:0.264583"
       x="138.85556"
       y="109.54342">Auzotik eta auzoarentzat</tspan></text>
  <text
     xml:space="preserve"
     style="font-size:20.9311px;line-height:1.25;font-family:Staatliches;-inkscape-font-specification:Staatliches;text-align:center;text-anchor:middle;stroke-width:0.218033;fill:#25b750;fill-opacity:1"
     x="192.32008"
     y="40.506104"
     id="text6346-5"><tspan
       sodipodi:role="line"
       style="font-style:normal;font-variant:normal;font-weight:bold;font-stretch:normal;font-size:20.9311px;font-family:Purisa;-inkscape-font-specification:'Purisa Bold';text-align:center;text-anchor:middle;stroke-width:0.218033;fill:#25b750;fill-opacity:1"
       x="192.32008"
       y="40.506104"
       id="tspan88223">Gurutzetako </tspan><tspan
       sodipodi:role="line"
       style="font-style:normal;font-variant:normal;font-weight:bold;font-stretch:normal;font-size:20.9311px;font-family:Purisa;-inkscape-font-specification:'Purisa Bold';text-align:center;text-anchor:middle;stroke-width:0.218033;fill:#25b750;fill-opacity:1"
       x="192.32008"
       y="68.177742"
       id="tspan117215">Jaiak 2022</tspan></text>
</svg>
