<svg width="512" height="512" viewBox="0 0 135.47 135.47" xmlns="http://www.w3.org/2000/svg"><path d="M67.733 3.885A63.848 63.848 0 0 0 3.885 67.733a63.848 63.848 0 0 0 19.807 46.191c.369-.9.749-2.003.98-2.908.344-1.343.851-2.787 1.128-3.21.466-.71.398-1.248-.93-7.391a866.07 866.07 0 0 0-3.243-14.23c-2.48-10.42-2.409-11.572.759-12.332 4.1-.984 10.219 1.81 17.653 8.061 1.723 1.449 3.256 2.634 3.406 2.634.151 0 .742-1.015 1.314-2.256.826-1.792.97-2.388.697-2.897-.611-1.142-.37-2.239.95-4.32.712-1.121 1.296-2.28 1.297-2.573.006-1.011-2.929-12.766-3.617-14.488-.838-2.097-1.784-2.807-3.394-2.545-.64.104-3.66 1.396-6.71 2.872-4.973 2.406-5.772 2.696-7.752 2.808-2.56.144-3.806-.267-4.96-1.638-1.04-1.236-1.083-3.169-.103-4.545 1.006-1.413 3.286-2.33 9.528-3.83 9.654-2.318 10.091-2.71 9.77-8.737-.225-4.227-.02-4.964 1.655-5.942 1.245-.727 2.526-.537 2.83.42.113.356-.115 1.924-.507 3.486-.836 3.333-.729 6.872.32 10.622.79 2.82 5.112 13.8 5.647 14.346.312.318.937-.358 2.98-3.222 3.261-4.571 3.987-5.247 6.78-6.314 2.323-.888 3.75-1.969 3.75-2.839 0-.27-.417-.97-.928-1.555-1.293-1.482-2.189-3.383-2.455-5.211-.188-1.287-.414-1.675-1.325-2.27-1.403-.918-2.425-2.735-2.425-4.309 0-1.562 1.062-3.775 2.32-4.833 1.487-1.252 1.853-.974.521.397-.65.669-1.336 1.627-1.525 2.13-1.191 3.164.85 6.389 4.034 6.374 1.43-.006 3.644-.886 4.337-1.724.608-.735.79-.696 2.554.556 3.925 2.785 7.085 2.308 8.746-1.32 1.881-4.11.577-9.4-2.7-10.955-3.023-1.435-7.864.63-9 3.838-.147.413-.39.532-.778.379-.31-.123-1.367-.306-2.348-.407-.981-.101-1.862-.303-1.957-.447-.096-.145-1.308.096-2.694.536-1.907.606-2.673.719-3.15.463-2.281-1.22 1.957-5.67 9.436-9.904 1.78-1.008 3.307-1.948 3.394-2.089.087-.14.365-1.338.618-2.66 1.092-5.707 4.09-11.134 8.415-15.38a63.848 63.848 0 0 0-9.277-.68zm11.072.968c-2.933 2.727-5.012 5.565-6.795 9.112-1.874 3.73-1.969 4.298-.711 4.28.829-.012.886.073.82 1.203-.04.669-.02 1.216.043 1.216s1.116-.382 2.34-.848c1.61-.614 2.948-.87 4.823-.925l2.594-.075 2.352-2.295c2.921-2.85 5.992-5.224 9.285-7.177a63.848 63.848 0 0 0-14.751-4.491zm16.7 5.39c-4.303 2.343-12.127 8.1-12.127 8.986 0 .207.595.77 1.323 1.252 1.553 1.027 2.388 2.719 2.1 4.253-.108.575-.797 1.728-1.53 2.562l-1.336 1.517 1.148 1.195c1.566 1.632 2.72 4.066 3.526 7.44.618 2.583.666 3.55.54 10.861-.077 4.415-.1 8.026-.051 8.026.048 0 .642-.379 1.319-.842 1.074-.736 1.467-.823 3.095-.68 1.595.14 2.03.05 3.014-.616 1.423-.966 1.445-.965 1.445.04 0 2.275-1.884 4.246-4.784 5.005-.758.199-1.378.501-1.378.672 0 .171.523.89 1.162 1.597.661.732 1.062 1.447.93 1.66-.329.533-2.922.122-4.275-.676-.603-.356-1.224-.647-1.38-.647-.155 0-.449.84-.652 1.865a217.4 217.4 0 0 1-1.191 5.371c-.452 1.93-.726 3.602-.61 3.719.685.685 9.408-3.526 11.893-5.74 2.002-1.785 2.906-3.506 3.537-6.735.587-3.01 2.052-4.18 3.385-2.707.456.504.548 1.037.438 2.55-.11 1.54-.412 2.367-1.535 4.226-1.643 2.72-1.612 3.228.322 5.22 3.13 3.226 8.861 4.447 16.504 3.516 1.088-.132 1.26.864.32 1.864l-.723.77.837.38c1.158.528 1.301 1.14.456 1.953-1.958 1.884-7.572 2.943-12.063 2.275-3.234-.481-4.145-.934-7.156-3.56-3.803-3.313-4.481-3.663-6.857-3.534-1.641.088-2.623.413-5.351 1.77-5.158 2.567-5.897 3.205-6.748 5.826-.394 1.217-1.723 4.152-2.952 6.523-1.998 3.855-2.235 4.506-2.235 6.161 0 1.018-.22 4.769-.49 8.336-.477 6.327-.474 6.504.143 7.296.348.446 1.026 1.595 1.506 2.553s1.485 2.381 2.234 3.162c1.356 1.416 1.367 1.42 3.661 1.42 2.002 0 2.43.11 3.299.84 2.08 1.75.957 4.21-2.726 5.967-2.567 1.225-4.374 1.482-6.836.974-4.728-.977-7.6-3.782-7.6-7.42 0-1.57.867-5.13 1.488-6.106.604-.95.626-.875-.705-2.349-.639-.707-1.066-1.44-.95-1.627.116-.188.347-.258.513-.156.425.263.377-.62-.057-1.054-.263-.262-.181-.454.303-.713.545-.292.63-.565.473-1.527-.176-1.087-.139-1.156.509-.95.853.27.91.115 1.15-3.147.12-1.612.067-2.513-.145-2.513-.182 0-1.482.806-2.889 1.792-3.344 2.344-7.127 4.092-11.529 5.328-4.623 1.298-6.331 1.477-9.618 1.01-4.22-.602-10.113-1.975-10.632-2.478-.398-.385-.415-.945-.111-3.621.197-1.741.451-3.394.563-3.673.138-.342-1.387-2.493-4.71-6.647-9.065-11.33-10.1-11.875-9.58-5.046.21 2.75 2.824 15.74 3.254 16.17.121.122.528.03.903-.205.665-.415.677-.389.478 1.066-.187 1.364-.146 1.493.474 1.493.603 0 .654.13.46 1.163-.2 1.069-.164 1.146.45.95.862-.273.838.009-.146 1.73-.97 1.699-1.003 2.305-.18 3.352.345.438 1.038 1.808 1.54 3.043 1.314 3.231 1.138 6.24-.365 8.658a63.848 63.848 0 0 0 35.736 10.95 63.848 63.848 0 0 0 63.848-63.848 63.848 63.848 0 0 0-36.077-57.491zM69.434 20.987c-.178 0-.324.228-.324.506s.146.415.324.305c.178-.11.324-.338.324-.505 0-.168-.146-.306-.324-.306zm3.21 14.268c1.574 0 1.952.486 1.04 1.335-.787.734-.795.768-.347 1.605.216.404.679.628 1.297.628 1.168 0 1.248.59.21 1.565-1.129 1.061-2.94.955-4.138-.243-1.954-1.955-.792-4.89 1.937-4.89zm-8.591 2.595c.985 0 1.2.277.76.981-.28.45-.262.713.08 1.125.38.457.376.581-.02.832-.657.416-1.725.374-2.184-.084-.967-.968-.066-2.854 1.364-2.854zm15.893 8.276c-.265-.043-.667.185-1.61.768-2.438 1.505-5.243 2.104-8.74 1.866-1.605-.109-3.48-.357-4.165-.551-.685-.195-1.323-.277-1.417-.183-.672.672 2.269 4.593 4.19 5.586 2.014 1.042 4.447 1.185 7.396.434 1.82-.463 4.04-2.047 4.64-3.311.648-1.367.709-3.456.123-4.257-.149-.203-.258-.326-.417-.352z" fill="#2fdd62" style="-inkscape-stroke:none"/></svg>